<svg width="19" height="15" viewBox="0 0 19 15" fill="none" xmlns="http://www.w3.org/2000/svg">
<path d="M8.42618 11.9997H5.01709L6.46595 3.27246H9.73868C10.6364 3.27246 11.3864 3.45285 11.9886 3.81365C12.5909 4.17445 13.0185 4.69007 13.2713 5.36053C13.5241 6.03098 13.5739 6.82928 13.4205 7.75541C13.2727 8.64746 12.973 9.41024 12.5213 10.0437C12.0724 10.6773 11.4986 11.1616 10.7997 11.4969C10.1037 11.8321 9.31254 11.9997 8.42618 11.9997ZM7.71879 9.98837H8.57959C9.0114 9.98837 9.39635 9.91308 9.73442 9.76251C10.0753 9.6091 10.3594 9.35342 10.5866 8.99547C10.8168 8.63467 10.983 8.14178 11.0852 7.51678C11.1818 6.92587 11.179 6.4699 11.0767 6.14888C10.9744 5.82501 10.7798 5.60058 10.4929 5.47558C10.206 5.34774 9.83527 5.28382 9.38072 5.28382H8.50288L7.71879 9.98837Z" fill="black"/>
<path d="M6.06247 3.27246H8.3977L7.40906 9.25541C7.31247 9.82359 7.08804 10.3236 6.73577 10.7554C6.38349 11.1844 5.93889 11.5196 5.40196 11.7611C4.86503 11.9997 4.2727 12.119 3.62497 12.119C3.06815 12.119 2.57383 12.0224 2.14202 11.8292C1.71304 11.6332 1.39486 11.3264 1.18747 10.9088C0.982929 10.4883 0.937474 9.94291 1.05111 9.27246H3.42042C3.39202 9.49405 3.3977 9.68013 3.43747 9.8307C3.47724 9.97842 3.55111 10.0906 3.65906 10.1673C3.76702 10.2412 3.90906 10.2781 4.0852 10.2781C4.26133 10.2781 4.41616 10.2398 4.54969 10.1631C4.68321 10.0835 4.794 9.96848 4.88207 9.81791C4.97014 9.6645 5.03406 9.477 5.07383 9.25541L6.06247 3.27246Z" fill="black"/>
<path d="M18.0598 6.54536H15.6904C15.7075 6.34366 15.6961 6.16184 15.6563 5.99991C15.6166 5.83798 15.5484 5.69877 15.4518 5.5823C15.3552 5.46298 15.2288 5.37207 15.0725 5.30957C14.9163 5.24707 14.7302 5.21582 14.5143 5.21582C14.0995 5.21582 13.7288 5.31951 13.4021 5.5269C13.0754 5.73144 12.8041 6.02548 12.5882 6.409C12.3723 6.78968 12.2189 7.24423 12.1279 7.77264C12.0484 8.284 12.0456 8.70872 12.1194 9.04679C12.1961 9.38485 12.3453 9.63769 12.5669 9.80531C12.7913 9.97292 13.0825 10.0567 13.4404 10.0567C13.6791 10.0567 13.8978 10.0283 14.0967 9.9715C14.2984 9.91468 14.4774 9.83372 14.6336 9.7286C14.7927 9.62065 14.9277 9.49281 15.0385 9.34508C15.1521 9.19451 15.2387 9.02832 15.2984 8.8465H17.6848C17.5939 9.21582 17.4319 9.59366 17.199 9.98002C16.966 10.3635 16.6649 10.7172 16.2956 11.0411C15.9262 11.3621 15.4916 11.6221 14.9916 11.8209C14.4916 12.0198 13.9291 12.1192 13.3041 12.1192C12.4859 12.1192 11.7799 11.9402 11.1862 11.5823C10.5953 11.2243 10.1663 10.7016 9.89922 10.0141C9.63501 9.32661 9.58246 8.48855 9.74155 7.49991C9.90064 6.54536 10.2146 5.74565 10.6833 5.10076C11.1521 4.45588 11.7217 3.97008 12.3921 3.64338C13.0626 3.31667 13.7757 3.15332 14.5313 3.15332C15.1024 3.15332 15.6137 3.2286 16.0654 3.37917C16.52 3.52974 16.9021 3.74991 17.2117 4.03968C17.5242 4.32661 17.7544 4.68031 17.9021 5.10076C18.0498 5.52122 18.1024 6.00275 18.0598 6.54536Z" fill="#FE0404"/>
</svg>
